<svg width="178" height="37" viewBox="0 0 178 37" fill="none" xmlns="http://www.w3.org/2000/svg">
<path d="M167.829 18.4716H175.544V20.2932H167.829V18.4716ZM168.022 25.1365H176.765V27.0009H165.879V11.9996H176.465V13.864H168.022V25.1365Z" fill="#D3DCF1"/>
<path d="M155.385 27.1724C154.242 27.1724 153.185 26.9867 152.213 26.6152C151.256 26.2295 150.42 25.6937 149.706 25.0079C149.006 24.3078 148.456 23.4935 148.056 22.5648C147.656 21.6362 147.456 20.6146 147.456 19.5003C147.456 18.3859 147.656 17.3643 148.056 16.4357C148.456 15.507 149.013 14.6998 149.727 14.014C150.442 13.314 151.278 12.7782 152.235 12.4067C153.206 12.021 154.264 11.8281 155.407 11.8281C156.564 11.8281 157.628 12.0281 158.6 12.4282C159.586 12.8139 160.421 13.3926 161.107 14.1641L159.714 15.5142C159.143 14.9141 158.5 14.4712 157.785 14.1855C157.071 13.8855 156.307 13.7354 155.492 13.7354C154.649 13.7354 153.864 13.8783 153.135 14.1641C152.421 14.4498 151.799 14.8498 151.27 15.3642C150.742 15.8785 150.328 16.4928 150.028 17.2072C149.742 17.9073 149.599 18.6716 149.599 19.5003C149.599 20.3289 149.742 21.1004 150.028 21.8148C150.328 22.5148 150.742 23.122 151.27 23.6364C151.799 24.1507 152.421 24.5507 153.135 24.8365C153.864 25.1222 154.649 25.2651 155.492 25.2651C156.307 25.2651 157.071 25.1222 157.785 24.8365C158.5 24.5364 159.143 24.0793 159.714 23.4649L161.107 24.815C160.421 25.5865 159.586 26.1723 158.6 26.5723C157.628 26.9724 156.557 27.1724 155.385 27.1724Z" fill="#D3DCF1"/>
<path d="M129.204 27.0009L135.998 11.9996H138.12L144.934 27.0009H142.684L136.619 13.1997H137.477L131.412 27.0009H129.204ZM132.098 23.2506L132.676 21.5362H141.12L141.741 23.2506H132.098Z" fill="#D3DCF1"/>
<path d="M114.191 27.0009V11.9996H120.042C121.356 11.9996 122.477 12.2067 123.406 12.6211C124.335 13.0354 125.049 13.6354 125.549 14.4212C126.049 15.207 126.299 16.1428 126.299 17.2286C126.299 18.3144 126.049 19.2502 125.549 20.036C125.049 20.8075 124.335 21.4004 123.406 21.8148C122.477 22.2291 121.356 22.4362 120.042 22.4362H115.37L116.334 21.4504V27.0009H114.191ZM124.22 27.0009L120.406 21.5576H122.699L126.556 27.0009H124.22ZM116.334 21.6647L115.37 20.6146H119.977C121.349 20.6146 122.385 20.3218 123.085 19.736C123.799 19.1359 124.156 18.3001 124.156 17.2286C124.156 16.1571 123.799 15.3284 123.085 14.7427C122.385 14.1569 121.349 13.864 119.977 13.864H115.37L116.334 12.7925V21.6647Z" fill="#D3DCF1"/>
<path d="M102.877 27.0009V13.864H97.7342V11.9996H110.142V13.864H104.999V27.0009H102.877Z" fill="#D3DCF1"/>
<path d="M77.7164 27.0009V11.9996H79.4737L86.2029 23.3363H85.2599L91.9034 11.9996H93.6607L93.6821 27.0009H91.6248L91.6033 15.2356H92.0963L86.1814 25.1794H85.1956L79.2379 15.2356H79.7737V27.0009H77.7164Z" fill="#D3DCF1"/>
<path d="M69.3677 27.0009V11.9996H71.5107V27.0009H69.3677Z" fill="#D3DCF1"/>
<path d="M54.1359 23.3792L54.0287 20.7647L62.5367 11.9996H64.9797L58.4006 18.9431L57.2005 20.2718L54.1359 23.3792ZM52.25 27.0009V11.9996H54.3931V27.0009H52.25ZM62.8795 27.0009L56.729 19.8431L58.1648 18.2573L65.3869 27.0009H62.8795Z" fill="#D3DCF1"/>
<rect x="0.0449219" y="0.955078" width="36" height="36" rx="3.6" fill="#D3DCF1"/>
<path d="M24.8213 1.6185C24.837 1.53006 24.8611 1.35912 24.8611 1H32.4C32.5382 1 32.6745 1.00778 32.8087 1.02294C34.6045 1.22585 36 2.74995 36 4.6V8.65253C34.5677 12.5689 32.2192 16.1788 29.3339 19.0191C29.3154 19.0373 29.2969 19.0554 29.2784 19.0735C25.7174 15.5962 20.8061 12.7901 15.1973 12.7547V12.7338C16.5635 12.6892 18.4691 11.927 20.4413 9.98559C22.4364 8.02158 23.9597 5.34623 24.5678 2.71726C24.6045 2.55863 24.6396 2.41204 24.6693 2.28877L24.6836 2.22913L24.6837 2.22878L24.6838 2.22816L24.684 2.22773C24.7082 2.12715 24.7272 2.04791 24.7458 1.96883C24.7882 1.78817 24.8084 1.6909 24.8213 1.6185Z" fill="#BF1815"/>
<path fill-rule="evenodd" clip-rule="evenodd" d="M6.72668 31.3909C6.17631 31.3909 5.73014 30.9448 5.73014 30.3944L5.73014 7.7231C5.73014 7.17273 6.1763 6.72656 6.72668 6.72656L14.2007 6.72656C14.7511 6.72656 15.1973 7.17273 15.1973 7.7231L15.1973 30.3944C15.1973 30.9448 14.7511 31.3909 14.2007 31.3909L6.72668 31.3909Z" fill="#0A1D2E"/>
<path d="M15.1973 25.4331C16.5649 25.4709 18.4793 26.2312 20.461 28.1819C22.4561 30.1459 23.9794 32.8212 24.5875 35.4502C24.6242 35.6088 24.6593 35.7554 24.6889 35.8787L24.7033 35.9383L24.7035 35.9391L24.7036 35.9397C24.7278 36.0403 24.7469 36.1195 24.7655 36.1986C24.8079 36.3793 24.8281 36.4765 24.8409 36.5489C24.8544 36.6246 24.874 36.7438 24.8794 37.0012H32.4C34.3882 37.0012 36 35.3894 36 33.4012V29.4613C34.5659 25.5656 32.2257 21.9757 29.3535 19.1483C25.7866 15.6371 20.8457 12.7915 15.1973 12.7559L15.1973 25.4331Z" fill="#0E467E"/>
</svg>
