<svg width="178" height="37" viewBox="0 0 178 37" fill="none" xmlns="http://www.w3.org/2000/svg">
<path d="M167.829 17.5165H175.544V19.3381H167.829V17.5165ZM168.022 24.1814H176.765V26.0459H165.879V11.0445H176.465V12.9089H168.022V24.1814Z" fill="#0A1D2E"/>
<path d="M155.385 26.2173C154.242 26.2173 153.185 26.0316 152.213 25.6601C151.256 25.2744 150.42 24.7386 149.706 24.0528C149.006 23.3528 148.456 22.5384 148.056 21.6097C147.656 20.6811 147.456 19.6596 147.456 18.5452C147.456 17.4308 147.656 16.4093 148.056 15.4806C148.456 14.552 149.013 13.7447 149.727 13.059C150.442 12.3589 151.278 11.8231 152.235 11.4517C153.206 11.0659 154.264 10.873 155.407 10.873C156.564 10.873 157.628 11.0731 158.6 11.4731C159.586 11.8589 160.421 12.4375 161.107 13.209L159.714 14.5591C159.143 13.959 158.5 13.5161 157.785 13.2304C157.071 12.9304 156.307 12.7804 155.492 12.7804C154.649 12.7804 153.864 12.9232 153.135 13.209C152.421 13.4947 151.799 13.8948 151.27 14.4091C150.742 14.9234 150.328 15.5378 150.028 16.2521C149.742 16.9522 149.599 17.7165 149.599 18.5452C149.599 19.3738 149.742 20.1453 150.028 20.8597C150.328 21.5597 150.742 22.1669 151.27 22.6813C151.799 23.1956 152.421 23.5956 153.135 23.8814C153.864 24.1671 154.649 24.31 155.492 24.31C156.307 24.31 157.071 24.1671 157.785 23.8814C158.5 23.5814 159.143 23.1242 159.714 22.5098L161.107 23.86C160.421 24.6315 159.586 25.2172 158.6 25.6173C157.628 26.0173 156.557 26.2173 155.385 26.2173Z" fill="#0A1D2E"/>
<path d="M129.204 26.0459L135.998 11.0445H138.12L144.934 26.0459H142.684L136.619 12.2446H137.477L131.412 26.0459H129.204ZM132.098 22.2955L132.676 20.5811H141.12L141.741 22.2955H132.098Z" fill="#0A1D2E"/>
<path d="M114.191 26.0459V11.0445H120.042C121.356 11.0445 122.477 11.2517 123.406 11.666C124.335 12.0803 125.049 12.6804 125.549 13.4661C126.049 14.2519 126.299 15.1877 126.299 16.2735C126.299 17.3594 126.049 18.2952 125.549 19.0809C125.049 19.8524 124.335 20.4454 123.406 20.8597C122.477 21.274 121.356 21.4812 120.042 21.4812H115.37L116.334 20.4954V26.0459H114.191ZM124.22 26.0459L120.406 20.6025H122.699L126.556 26.0459H124.22ZM116.334 20.7097L115.37 19.6596H119.977C121.349 19.6596 122.385 19.3667 123.085 18.7809C123.799 18.1809 124.156 17.3451 124.156 16.2735C124.156 15.202 123.799 14.3734 123.085 13.7876C122.385 13.2018 121.349 12.9089 119.977 12.9089H115.37L116.334 11.8374V20.7097Z" fill="#0A1D2E"/>
<path d="M102.877 26.0459V12.9089H97.7342V11.0445H110.142V12.9089H104.999V26.0459H102.877Z" fill="#0A1D2E"/>
<path d="M77.7164 26.0459V11.0445H79.4737L86.2029 22.3812H85.2599L91.9034 11.0445H93.6607L93.6821 26.0459H91.6248L91.6033 14.2805H92.0963L86.1814 24.2243H85.1956L79.2379 14.2805H79.7737V26.0459H77.7164Z" fill="#0A1D2E"/>
<path d="M69.3677 26.0459V11.0445H71.5107V26.0459H69.3677Z" fill="#0A1D2E"/>
<path d="M54.1359 22.4241L54.0287 19.8096L62.5367 11.0445H64.9797L58.4006 17.988L57.2005 19.3167L54.1359 22.4241ZM52.25 26.0459V11.0445H54.3931V26.0459H52.25ZM62.8795 26.0459L56.729 18.8881L58.1648 17.3022L65.3869 26.0459H62.8795Z" fill="#0A1D2E"/>
<rect x="0.0449219" width="36" height="36" rx="3.6" fill="#D3DCF1"/>
<path d="M24.8213 0.663422C24.837 0.574984 24.8611 0.404045 24.8611 0.0449219H32.4C32.5382 0.0449219 32.6745 0.0527065 32.8087 0.0678613C34.6045 0.270768 36 1.79487 36 3.64492V7.69746C34.5677 11.6138 32.2192 15.2237 29.3339 18.064C29.3154 18.0822 29.2969 18.1003 29.2784 18.1184C25.7174 14.6411 20.8061 11.835 15.1973 11.7996V11.7787C16.5635 11.7341 18.4691 10.9719 20.4413 9.03051C22.4364 7.0665 23.9597 4.39115 24.5678 1.76218C24.6045 1.60355 24.6396 1.45696 24.6693 1.33369L24.6836 1.27406L24.6837 1.2737L24.6838 1.27308L24.684 1.27265C24.7082 1.17207 24.7272 1.09284 24.7458 1.01375C24.7882 0.833088 24.8084 0.735817 24.8213 0.663422Z" fill="#BF1815"/>
<path fill-rule="evenodd" clip-rule="evenodd" d="M6.72668 30.4358C6.17631 30.4358 5.73014 29.9897 5.73014 29.4393L5.73014 6.76802C5.73014 6.21765 6.1763 5.77148 6.72668 5.77148L14.2007 5.77148C14.7511 5.77148 15.1973 6.21765 15.1973 6.76802L15.1973 29.4393C15.1973 29.9897 14.7511 30.4358 14.2007 30.4358L6.72668 30.4358Z" fill="#0A1D2E"/>
<path d="M15.1973 24.478C16.5649 24.5159 18.4793 25.2761 20.461 27.2268C22.4561 29.1908 23.9794 31.8661 24.5875 34.4951C24.6242 34.6537 24.6593 34.8003 24.6889 34.9236L24.7033 34.9832L24.7035 34.984L24.7036 34.9846C24.7278 35.0852 24.7469 35.1645 24.7655 35.2435C24.8079 35.4242 24.8281 35.5215 24.8409 35.5939C24.8544 35.6695 24.874 35.7887 24.8794 36.0461H32.4C34.3882 36.0461 36 34.4343 36 32.4461V28.5062C34.5659 24.6105 32.2257 21.0206 29.3535 18.1933C25.7866 14.682 20.8457 11.8364 15.1973 11.8008L15.1973 24.478Z" fill="#0E467E"/>
</svg>
